<?xml version="1.0" encoding="utf-8"?>
<!-- Generator: Adobe Illustrator 25.2.3, SVG Export Plug-In . SVG Version: 6.00 Build 0)  -->
<svg version="1.1" id="Camada_1" xmlns="http://www.w3.org/2000/svg" xmlns:xlink="http://www.w3.org/1999/xlink" x="0px" y="0px"
	 viewBox="0 0 752.2 231.4" style="enable-background:new 0 0 752.2 231.4;" xml:space="preserve">
<style type="text/css">
	.st0{fill:#04D361;}
	.st1{fill:#101023;}
	.st2{fill:#9457EA;}
	.st3{fill:#E6E6FF;}
</style>
<g>
	<path class="st0" d="M146.3,55.2c-8,0.1-14.3,7-14.3,15.1v24.6c0,5.8-3.4,11-8.7,13.4c-8.7,3.8-16.5,9.9-23.2,18.1l0-111.2
		c0-8-6.3-14.9-14.3-15.1c-8.2-0.1-14.9,6.4-14.9,14.6V165c-2.4-2.1-4.8-4-7.4-5.7c-7-4.7-14.9-8.2-23.5-10.4
		c-6.3-1.7-10.7-7.5-10.7-14.1v-12.1c0-8-6.3-14.9-14.3-15.1C6.7,107.5,0,114.1,0,122.2l0,38.2c0,8.1,6.6,14.5,14.7,14.6
		c23.1,0,38.8,8.7,48.2,26.6c3.2,6,5.1,12.2,6.2,17.3c1.6,7.2,8,12.4,15.4,12.4h0.6c8.2,0,15-6.3,15.7-14.4
		c0.8-10.3,2.6-24.7,6.5-38.9c8.3-30.2,21.5-45.5,39.5-45.3c8,0.1,14.3-6.6,14.3-14.6V69.8C161.2,61.7,154.5,55.1,146.3,55.2z"/>
	<g>
		<path class="st3" d="M275.8,162c-14.7,0-22.1-7-22.1-21V91.2c0-14.5,7.2-21.8,21.6-21.8h32.6c7.6,0,13.7,6.1,13.7,13.7v0
			c0,7.6-6.1,13.7-13.7,13.7h-27v32.8c0,3.4,1.6,5,4.7,5h22.6c7.5,0,13.6,6.1,13.6,13.6v0c0,7.5-6.1,13.6-13.6,13.6H275.8z"/>
		<path class="st3" d="M351.6,162c-13.5,0-20.2-7-20.2-21v-13.7c0-14.3,6.7-21.4,20.2-21.4h31.1c1.8,0,3.3,0,5.2,0V100
			c0-2.6-2.1-4.7-4.7-4.7H348c-7.1,0-12.9-5.8-12.9-12.9v0c0-7.1,5.8-12.9,12.9-12.9h45.1c14.7,0,22.1,7.3,22.1,21.8v49
			c0,14.5-7.1,21.8-21.3,21.8H351.6z M387.9,127c0-1.7-1.4-3.2-3.2-3.2h-26.2v9.6c0,1.7,1.4,3.2,3.2,3.2h26.2V127z"/>
		<path class="st3" d="M542,134.7h-3.5c-2.7,0-4.1-1.8-4.1-5.4V95.3h9c6.9,0,12.5-5.6,12.5-12.5c0-6.9-5.6-12.5-12.5-12.5h-9v-13
			c0-7.5-6.1-13.6-13.6-13.6s-13.6,6.1-13.6,13.6v12.1h-57.7c-14.4,0-21.6,7.3-21.6,21.8V141c0,14,7.4,21,22.1,21h32.6
			c7.5,0,13.6-6.1,13.6-13.6c0-7.5-6.1-13.6-13.6-13.6h-22.6c-3.2,0-4.7-1.7-4.7-5V96.8h52v44.8c0,13.6,7.5,20.3,22.5,20.3H542
			c7.5,0,13.6-6.1,13.6-13.6C555.6,140.8,549.5,134.7,542,134.7z"/>
		<path class="st3" d="M587.5,162c-14.7,0-22.1-7-22.1-21V91.2c0-14.5,7.2-21.8,21.6-21.8h40.7c14.3,0,21.4,7.3,21.4,21.9v49
			c0,14.4-7,21.6-21.1,21.6H587.5z M622.2,101.6c0-2.6-2.1-4.7-4.7-4.7h-24.8v32.8c0,3.4,1.6,5,4.7,5h24.8V101.6z"/>
		<path class="st2" d="M662.4,148.3V83.1c0-7.5,6.1-13.6,13.6-13.6h0c7.5,0,13.6,6.1,13.6,13.6v65.3c0,7.5-6.1,13.6-13.6,13.6h0
			C668.5,162,662.4,155.9,662.4,148.3z"/>
		<path class="st2" d="M662.4,52.8L662.4,52.8c0-5,4.1-9.1,9.1-9.1h9.1c5,0,9.1,4.1,9.1,9.1v0c0,5-4.1,9.1-9.1,9.1h-9.1
			C666.4,61.8,662.4,57.8,662.4,52.8z"/>
		<path class="st2" d="M726.1,162c-15,0-22.5-6.8-22.5-20.3V57.4c0-7.5,6.1-13.6,13.6-13.6h0c7.5,0,13.6,6.1,13.6,13.6v13h9
			c6.9,0,12.5,5.6,12.5,12.5v0c0,6.9-5.6,12.5-12.5,12.5h-9v34.1c0,3.6,1.4,5.4,4.1,5.4h3.5c7.5,0,13.6,6.1,13.6,13.6v0
			c0,7.5-6.1,13.6-13.6,13.6H726.1z"/>
	</g>
</g>
</svg>
